<mxfile host="65bd71144e">
    <diagram id="gjKjIMiTYmDiEs1VnJWH" name="Page-1">
        <mxGraphModel dx="1920" dy="1007" grid="1" gridSize="10" guides="1" tooltips="1" connect="1" arrows="1" fold="1" page="0" pageScale="1" pageWidth="850" pageHeight="1100" math="0" shadow="0">
            <root>
                <mxCell id="0"/>
                <mxCell id="1" parent="0"/>
                <mxCell id="4" value="&lt;b&gt;GUNS&lt;/b&gt;&lt;br&gt;- reloading animation&lt;br&gt;- better shooting animation&lt;br&gt;- new shotgun&lt;br&gt;- change models when changing weapons&lt;br&gt;" style="text;html=1;align=left;verticalAlign=middle;resizable=0;points=[];autosize=1;strokeColor=none;fillColor=none;fontSize=20;fontFamily=Architects Daughter;sketch=1;hachureGap=4;jiggle=2;curveFitting=1;fontSource=https%3A%2F%2Ffonts.googleapis.com%2Fcss%3Ffamily%3DArchitects%2BDaughter;" parent="1" vertex="1">
                    <mxGeometry x="-40" y="-60" width="400" height="130" as="geometry"/>
                </mxCell>
                <mxCell id="9" value="&lt;b&gt;MECHANICS&lt;/b&gt;&lt;br&gt;- jump&lt;br&gt;- camera interpolation" style="text;html=1;align=left;verticalAlign=middle;resizable=0;points=[];autosize=1;strokeColor=none;fillColor=none;fontSize=20;fontFamily=Architects Daughter;sketch=1;hachureGap=4;jiggle=2;curveFitting=1;fontSource=https%3A%2F%2Ffonts.googleapis.com%2Fcss%3Ffamily%3DArchitects%2BDaughter;" parent="1" vertex="1">
                    <mxGeometry x="-40" y="-160" width="230" height="90" as="geometry"/>
                </mxCell>
                <mxCell id="10" value="&lt;b&gt;GENERAL&lt;/b&gt;&lt;br&gt;-? merge crosshair lines to a parent" style="text;html=1;align=left;verticalAlign=middle;resizable=0;points=[];autosize=1;strokeColor=none;fillColor=none;fontSize=20;fontFamily=Architects Daughter;sketch=1;hachureGap=4;jiggle=2;curveFitting=1;fontSource=https%3A%2F%2Ffonts.googleapis.com%2Fcss%3Ffamily%3DArchitects%2BDaughter;" parent="1" vertex="1">
                    <mxGeometry x="-40" y="90" width="360" height="60" as="geometry"/>
                </mxCell>
                <mxCell id="11" value="&lt;b&gt;CURRENT&lt;br&gt;&lt;/b&gt;- change raycast with projectile bullet&lt;b&gt;&lt;br&gt;&lt;/b&gt;" style="text;html=1;align=left;verticalAlign=middle;resizable=0;points=[];autosize=1;strokeColor=none;fillColor=none;fontSize=20;fontFamily=Architects Daughter;sketch=1;hachureGap=4;jiggle=2;curveFitting=1;fontSource=https%3A%2F%2Ffonts.googleapis.com%2Fcss%3Ffamily%3DArchitects%2BDaughter;" vertex="1" parent="1">
                    <mxGeometry x="-490" y="-150" width="380" height="60" as="geometry"/>
                </mxCell>
            </root>
        </mxGraphModel>
    </diagram>
</mxfile>